<mxfile host="app.diagrams.net" modified="2023-10-15T12:27:57.068Z" agent="Mozilla/5.0 (Windows NT 10.0; Win64; x64; rv:109.0) Gecko/20100101 Firefox/118.0" etag="puST1Lye-q5Oe4ONL9Ir" version="22.0.4" type="device">
  <diagram name="Page-1" id="9cCb-A12NrkpjEBd6Hig">
    <mxGraphModel dx="1434" dy="782" grid="1" gridSize="10" guides="1" tooltips="1" connect="1" arrows="1" fold="1" page="1" pageScale="1" pageWidth="850" pageHeight="1100" math="0" shadow="0">
      <root>
        <mxCell id="0" />
        <mxCell id="1" parent="0" />
        <mxCell id="lg0wgzzpMhsQYg_1bT3f-10" style="edgeStyle=orthogonalEdgeStyle;rounded=0;orthogonalLoop=1;jettySize=auto;html=1;entryX=0;entryY=0.5;entryDx=0;entryDy=0;" parent="1" source="Blzzl_oUk9IG_G6hEe9v-1" target="lg0wgzzpMhsQYg_1bT3f-9" edge="1">
          <mxGeometry relative="1" as="geometry" />
        </mxCell>
        <mxCell id="Blzzl_oUk9IG_G6hEe9v-1" value="&lt;font style=&quot;font-size: 11px;&quot;&gt;Käyttäjä&lt;/font&gt;" style="rounded=0;whiteSpace=wrap;html=1;fontFamily=Verdana;fontSize=11;" parent="1" vertex="1">
          <mxGeometry x="20" y="170" width="80" height="50" as="geometry" />
        </mxCell>
        <mxCell id="Blzzl_oUk9IG_G6hEe9v-9" style="edgeStyle=orthogonalEdgeStyle;rounded=0;orthogonalLoop=1;jettySize=auto;html=1;exitX=1;exitY=0.5;exitDx=0;exitDy=0;entryX=0;entryY=0.5;entryDx=0;entryDy=0;" parent="1" target="Blzzl_oUk9IG_G6hEe9v-3" edge="1">
          <mxGeometry relative="1" as="geometry">
            <mxPoint x="270" y="195.28571428571433" as="targetPoint" />
            <mxPoint x="234" y="195" as="sourcePoint" />
          </mxGeometry>
        </mxCell>
        <mxCell id="lg0wgzzpMhsQYg_1bT3f-3" style="edgeStyle=orthogonalEdgeStyle;rounded=0;orthogonalLoop=1;jettySize=auto;html=1;entryX=0.5;entryY=0;entryDx=0;entryDy=0;" parent="1" source="Blzzl_oUk9IG_G6hEe9v-3" target="lg0wgzzpMhsQYg_1bT3f-1" edge="1">
          <mxGeometry relative="1" as="geometry" />
        </mxCell>
        <mxCell id="lg0wgzzpMhsQYg_1bT3f-18" style="edgeStyle=orthogonalEdgeStyle;rounded=0;orthogonalLoop=1;jettySize=auto;html=1;entryX=0;entryY=0.5;entryDx=0;entryDy=0;" parent="1" source="Blzzl_oUk9IG_G6hEe9v-3" target="Blzzl_oUk9IG_G6hEe9v-4" edge="1">
          <mxGeometry relative="1" as="geometry" />
        </mxCell>
        <mxCell id="Blzzl_oUk9IG_G6hEe9v-3" value="&lt;div style=&quot;font-size: 11px;&quot;&gt;&lt;font style=&quot;font-size: 11px;&quot;&gt;Sisäänkirjau-&lt;/font&gt;&lt;/div&gt;&lt;div style=&quot;font-size: 11px;&quot;&gt;&lt;font style=&quot;font-size: 11px;&quot;&gt;tumis ruutu&lt;/font&gt;&lt;/div&gt;" style="rounded=0;whiteSpace=wrap;html=1;fontFamily=Verdana;fontSize=11;" parent="1" vertex="1">
          <mxGeometry x="272" y="170" width="97" height="50" as="geometry" />
        </mxCell>
        <mxCell id="Blzzl_oUk9IG_G6hEe9v-11" style="edgeStyle=orthogonalEdgeStyle;rounded=0;orthogonalLoop=1;jettySize=auto;html=1;entryX=0;entryY=0.5;entryDx=0;entryDy=0;" parent="1" source="Blzzl_oUk9IG_G6hEe9v-4" target="Blzzl_oUk9IG_G6hEe9v-6" edge="1">
          <mxGeometry relative="1" as="geometry">
            <Array as="points">
              <mxPoint x="525" y="195" />
            </Array>
          </mxGeometry>
        </mxCell>
        <mxCell id="Blzzl_oUk9IG_G6hEe9v-16" style="edgeStyle=orthogonalEdgeStyle;rounded=0;orthogonalLoop=1;jettySize=auto;html=1;entryX=0;entryY=0.5;entryDx=0;entryDy=0;" parent="1" source="Blzzl_oUk9IG_G6hEe9v-4" target="Blzzl_oUk9IG_G6hEe9v-7" edge="1">
          <mxGeometry relative="1" as="geometry">
            <Array as="points">
              <mxPoint x="460" y="274" />
            </Array>
          </mxGeometry>
        </mxCell>
        <mxCell id="Blzzl_oUk9IG_G6hEe9v-4" value="&lt;div style=&quot;font-size: 11px;&quot;&gt;&lt;font style=&quot;font-size: 11px;&quot;&gt;Päänäkymä/&lt;/font&gt;&lt;/div&gt;&lt;div style=&quot;font-size: 11px;&quot;&gt;&lt;font style=&quot;font-size: 11px;&quot;&gt;pelivalikko&lt;/font&gt;&lt;/div&gt;" style="rounded=0;whiteSpace=wrap;html=1;fontFamily=Verdana;fontSize=11;" parent="1" vertex="1">
          <mxGeometry x="415" y="170" width="90" height="50" as="geometry" />
        </mxCell>
        <mxCell id="lg0wgzzpMhsQYg_1bT3f-16" style="edgeStyle=orthogonalEdgeStyle;rounded=0;orthogonalLoop=1;jettySize=auto;html=1;entryX=0.25;entryY=0;entryDx=0;entryDy=0;" parent="1" source="Blzzl_oUk9IG_G6hEe9v-5" target="lg0wgzzpMhsQYg_1bT3f-11" edge="1">
          <mxGeometry relative="1" as="geometry" />
        </mxCell>
        <mxCell id="Blzzl_oUk9IG_G6hEe9v-5" value="Pokeripeli" style="rounded=0;whiteSpace=wrap;html=1;fontFamily=Verdana;fontSize=11;" parent="1" vertex="1">
          <mxGeometry x="545" y="91" width="90" height="50" as="geometry" />
        </mxCell>
        <mxCell id="lg0wgzzpMhsQYg_1bT3f-14" style="edgeStyle=orthogonalEdgeStyle;rounded=0;orthogonalLoop=1;jettySize=auto;html=1;entryX=0;entryY=0.5;entryDx=0;entryDy=0;" parent="1" source="Blzzl_oUk9IG_G6hEe9v-6" target="lg0wgzzpMhsQYg_1bT3f-11" edge="1">
          <mxGeometry relative="1" as="geometry" />
        </mxCell>
        <mxCell id="Blzzl_oUk9IG_G6hEe9v-6" value="Blackjackpeli" style="rounded=0;whiteSpace=wrap;html=1;fontFamily=Verdana;fontSize=11;" parent="1" vertex="1">
          <mxGeometry x="545" y="170" width="90" height="50" as="geometry" />
        </mxCell>
        <mxCell id="lg0wgzzpMhsQYg_1bT3f-15" style="edgeStyle=orthogonalEdgeStyle;rounded=0;orthogonalLoop=1;jettySize=auto;html=1;entryX=0.25;entryY=1;entryDx=0;entryDy=0;" parent="1" source="Blzzl_oUk9IG_G6hEe9v-7" target="lg0wgzzpMhsQYg_1bT3f-11" edge="1">
          <mxGeometry relative="1" as="geometry" />
        </mxCell>
        <mxCell id="Blzzl_oUk9IG_G6hEe9v-7" value="Slottipeli" style="rounded=0;whiteSpace=wrap;html=1;fontFamily=Verdana;fontSize=11;" parent="1" vertex="1">
          <mxGeometry x="545" y="249" width="90" height="50" as="geometry" />
        </mxCell>
        <mxCell id="Blzzl_oUk9IG_G6hEe9v-15" style="edgeStyle=orthogonalEdgeStyle;rounded=0;orthogonalLoop=1;jettySize=auto;html=1;entryX=0;entryY=0.5;entryDx=0;entryDy=0;" parent="1" target="Blzzl_oUk9IG_G6hEe9v-5" edge="1">
          <mxGeometry relative="1" as="geometry">
            <mxPoint x="450.0185714285715" y="170" as="sourcePoint" />
            <mxPoint x="530" y="116" as="targetPoint" />
            <Array as="points">
              <mxPoint x="460" y="170" />
              <mxPoint x="460" y="116" />
            </Array>
          </mxGeometry>
        </mxCell>
        <mxCell id="KZHsB7xxUBEGbgHv9lYc-2" style="edgeStyle=orthogonalEdgeStyle;rounded=0;orthogonalLoop=1;jettySize=auto;html=1;entryX=0.25;entryY=1;entryDx=0;entryDy=0;" parent="1" source="lg0wgzzpMhsQYg_1bT3f-1" target="Blzzl_oUk9IG_G6hEe9v-4" edge="1">
          <mxGeometry relative="1" as="geometry" />
        </mxCell>
        <mxCell id="KZHsB7xxUBEGbgHv9lYc-3" style="edgeStyle=orthogonalEdgeStyle;rounded=0;orthogonalLoop=1;jettySize=auto;html=1;entryX=0.5;entryY=1;entryDx=0;entryDy=0;" parent="1" source="lg0wgzzpMhsQYg_1bT3f-1" target="Blzzl_oUk9IG_G6hEe9v-1" edge="1">
          <mxGeometry relative="1" as="geometry" />
        </mxCell>
        <mxCell id="lg0wgzzpMhsQYg_1bT3f-1" value="&lt;font style=&quot;font-size: 11px;&quot; face=&quot;Verdana&quot;&gt;Käyttäjän tiedot tallennettu&lt;/font&gt;" style="rounded=0;whiteSpace=wrap;html=1;" parent="1" vertex="1">
          <mxGeometry x="280" y="249" width="81" height="51" as="geometry" />
        </mxCell>
        <mxCell id="lg0wgzzpMhsQYg_1bT3f-9" value="&lt;font style=&quot;font-size: 11px;&quot; face=&quot;Verdana&quot;&gt;Ohjelma käynnistetty&lt;/font&gt;" style="rounded=0;whiteSpace=wrap;html=1;" parent="1" vertex="1">
          <mxGeometry x="140" y="170" width="100" height="50" as="geometry" />
        </mxCell>
        <mxCell id="lg0wgzzpMhsQYg_1bT3f-17" style="edgeStyle=orthogonalEdgeStyle;rounded=0;orthogonalLoop=1;jettySize=auto;html=1;entryX=0.5;entryY=1;entryDx=0;entryDy=0;" parent="1" source="lg0wgzzpMhsQYg_1bT3f-11" target="lg0wgzzpMhsQYg_1bT3f-1" edge="1">
          <mxGeometry relative="1" as="geometry">
            <Array as="points">
              <mxPoint x="730" y="331" />
              <mxPoint x="321" y="331" />
            </Array>
          </mxGeometry>
        </mxCell>
        <mxCell id="lg0wgzzpMhsQYg_1bT3f-11" value="&lt;font style=&quot;font-size: 11px;&quot; face=&quot;Verdana&quot;&gt;Ohjelma suljettu&lt;/font&gt;" style="rounded=0;whiteSpace=wrap;html=1;" parent="1" vertex="1">
          <mxGeometry x="670" y="171" width="100" height="49" as="geometry" />
        </mxCell>
      </root>
    </mxGraphModel>
  </diagram>
</mxfile>
